<svg width="378" height="200" viewBox="0 0 378 200" fill="none" xmlns="http://www.w3.org/2000/svg">
<rect x="2" y="2" width="374" height="196" rx="42" stroke="white" stroke-width="4"/>
<path d="M0 46C0 20.5949 20.5949 0 46 0H329C354.405 0 375 20.5949 375 46H0Z" fill="white"/>
<path d="M43.9609 29.832C42.4375 28.2383 41.6758 26.1602 41.6758 23.5977C41.6758 21.043 42.4375 18.9648 43.9609 17.3633C45.4688 15.7617 47.5078 14.9609 50.0781 14.9609C52.6406 14.9609 54.6836 15.7617 56.207 17.3633C57.7227 18.9727 58.4805 21.0508 58.4805 23.5977C58.4805 26.1523 57.7227 28.2305 56.207 29.832C54.6836 31.4336 52.6406 32.2344 50.0781 32.2344C47.5078 32.2344 45.4688 31.4336 43.9609 29.832ZM50.0781 30.1719C51.9688 30.1719 53.4492 29.5547 54.5195 28.3203C55.5898 27.0859 56.125 25.5117 56.125 23.5977C56.125 21.6758 55.5898 20.0977 54.5195 18.8633C53.457 17.6367 51.9766 17.0234 50.0781 17.0234C48.1797 17.0234 46.6992 17.6367 45.6367 18.8633C44.5664 20.0977 44.0312 21.6758 44.0312 23.5977C44.0312 25.5117 44.5664 27.0859 45.6367 28.3203C46.707 29.5547 48.1875 30.1719 50.0781 30.1719ZM72.5195 35V32H61.9609V20.2344H64.0234V30.125H70.7383V20.2344H72.8008V30.125H74.582V35H72.5195ZM89.4062 26.1172L89.3359 27.1016H78.707C78.707 27.7734 79.1055 28.4766 79.9023 29.2109C80.6914 29.9531 81.75 30.3242 83.0781 30.3242C84.0547 30.3242 84.8555 30.1406 85.4805 29.7734C85.9961 29.4609 86.3555 29.1797 86.5586 28.9297L86.6523 28.7656H89.0781C89.0312 28.8828 88.9805 29.0039 88.9258 29.1289C88.8242 29.3086 88.6328 29.5859 88.3516 29.9609C88.0469 30.3594 87.6914 30.7148 87.2852 31.0273C86.8945 31.332 86.3203 31.6094 85.5625 31.8594C84.8438 32.1094 84.0156 32.2344 83.0781 32.2344C81.1328 32.2344 79.5547 31.6797 78.3438 30.5703C77.1172 29.4609 76.5039 27.9766 76.5039 26.1172C76.5039 24.2734 77.1133 22.793 78.332 21.6758C79.543 20.5586 81.0859 20 82.9609 20C84.8203 20 86.3633 20.5586 87.5898 21.6758C88.8008 22.793 89.4062 24.2734 89.4062 26.1172ZM86.0781 23.0352C85.2969 22.293 84.2578 21.9219 82.9609 21.9219C81.6484 21.9219 80.6094 22.293 79.8438 23.0352C79.0703 23.7773 78.6836 24.5078 78.6836 25.2266H87.2266C87.2266 24.5078 86.8438 23.7773 86.0781 23.0352ZM104.043 32H101.969V26.9141H94.6094V32H92.5469V20.2344H94.6094V25.0391H101.969V20.2344H104.043V32ZM119.137 32H117.062V22.5898H117.016L110.254 32H107.641V20.2344H109.703V29.6445H109.75L116.512 20.2344H119.137V32ZM126.039 22.1094H121.293V20.2344H132.859V22.1094H128.102V32.0234L126.039 32V22.1094ZM146.711 26.1172L146.641 27.1016H136.012C136.012 27.7734 136.41 28.4766 137.207 29.2109C137.996 29.9531 139.055 30.3242 140.383 30.3242C141.359 30.3242 142.16 30.1406 142.785 29.7734C143.301 29.4609 143.66 29.1797 143.863 28.9297L143.957 28.7656H146.383C146.336 28.8828 146.285 29.0039 146.23 29.1289C146.129 29.3086 145.938 29.5859 145.656 29.9609C145.352 30.3594 144.996 30.7148 144.59 31.0273C144.199 31.332 143.625 31.6094 142.867 31.8594C142.148 32.1094 141.32 32.2344 140.383 32.2344C138.438 32.2344 136.859 31.6797 135.648 30.5703C134.422 29.4609 133.809 27.9766 133.809 26.1172C133.809 24.2734 134.418 22.793 135.637 21.6758C136.848 20.5586 138.391 20 140.266 20C142.125 20 143.668 20.5586 144.895 21.6758C146.105 22.793 146.711 24.2734 146.711 26.1172ZM143.383 23.0352C142.602 22.293 141.562 21.9219 140.266 21.9219C138.953 21.9219 137.914 22.293 137.148 23.0352C136.375 23.7773 135.988 24.5078 135.988 25.2266H144.531C144.531 24.5078 144.148 23.7773 143.383 23.0352ZM165.52 27.0547H160.75V25.1797H165.52C165.52 24.5859 165.191 23.9258 164.535 23.1992C164.199 22.8242 163.738 22.5195 163.152 22.2852C162.566 22.043 161.934 21.9219 161.254 21.9219C160.598 21.9219 160 22.0195 159.461 22.2148C158.93 22.4023 158.52 22.6445 158.23 22.9414C157.66 23.5195 157.324 24.043 157.223 24.5117L157.152 24.8047H155.008C155.008 23.9375 155.48 22.957 156.426 21.8633C156.871 21.3477 157.527 20.9062 158.395 20.5391C159.238 20.1797 160.191 20 161.254 20C163.137 20 164.684 20.5547 165.895 21.6641C167.105 22.7812 167.711 24.2578 167.711 26.0938C167.711 27.9375 167.102 29.418 165.883 30.5352C164.656 31.6523 163.113 32.2109 161.254 32.2109C160.191 32.2109 159.238 32.0312 158.395 31.6719C157.543 31.3125 156.887 30.8672 156.426 30.3359C155.48 29.2422 155.008 28.2695 155.008 27.418H157.152C157.23 27.7539 157.363 28.0859 157.551 28.4141C157.723 28.7344 157.949 29.0234 158.23 29.2812C158.535 29.5625 158.953 29.8047 159.484 30.0078C160.023 30.2031 160.613 30.3008 161.254 30.3008C161.941 30.3008 162.574 30.1797 163.152 29.9375C163.73 29.6875 164.191 29.3711 164.535 28.9883C164.848 28.6445 165.09 28.3008 165.262 27.957C165.434 27.6055 165.52 27.3047 165.52 27.0547ZM182.242 32H179.512L172.891 26.1406V32H170.828V20.2344H172.891V25.9766L179.102 20.2344H181.797L175.504 26.0234L182.242 32ZM184.902 30.5586C183.684 29.4414 183.074 27.9609 183.074 26.1172C183.074 24.2812 183.684 22.8008 184.902 21.6758C186.113 20.5586 187.656 20 189.531 20C191.391 20 192.934 20.5586 194.16 21.6758C195.371 22.8008 195.977 24.2812 195.977 26.1172C195.977 27.9609 195.371 29.4414 194.16 30.5586C192.934 31.6758 191.391 32.2344 189.531 32.2344C187.656 32.2344 186.113 31.6758 184.902 30.5586ZM192.684 29.1406C193.473 28.3516 193.867 27.3438 193.867 26.1172C193.867 24.8906 193.473 23.8828 192.684 23.0938C191.895 22.3125 190.844 21.9219 189.531 21.9219C188.211 21.9219 187.16 22.3125 186.379 23.0938C185.582 23.875 185.184 24.8828 185.184 26.1172C185.184 27.3516 185.582 28.3594 186.379 29.1406C187.168 29.9297 188.219 30.3242 189.531 30.3242C190.828 30.3242 191.879 29.9297 192.684 29.1406ZM199.504 27.2422L200.617 20.2344H209.559V32H207.496V22.1094H202.363L201.578 27.2422C201.305 29.1328 200.898 30.4375 200.359 31.1562C199.82 31.875 199.074 32.2344 198.121 32.2344C197.746 32.2344 197.41 32.1875 197.113 32.0938L196.938 32.0234V30.0547C197.195 30.1484 197.461 30.1953 197.734 30.1953C198.328 30.1953 198.754 29.8867 199.012 29.2695C199.184 28.8633 199.348 28.1875 199.504 27.2422ZM214.527 30.5586C213.309 29.4414 212.699 27.9609 212.699 26.1172C212.699 24.2812 213.309 22.8008 214.527 21.6758C215.738 20.5586 217.281 20 219.156 20C221.016 20 222.559 20.5586 223.785 21.6758C224.996 22.8008 225.602 24.2812 225.602 26.1172C225.602 27.9609 224.996 29.4414 223.785 30.5586C222.559 31.6758 221.016 32.2344 219.156 32.2344C217.281 32.2344 215.738 31.6758 214.527 30.5586ZM222.309 29.1406C223.098 28.3516 223.492 27.3438 223.492 26.1172C223.492 24.8906 223.098 23.8828 222.309 23.0938C221.52 22.3125 220.469 21.9219 219.156 21.9219C217.836 21.9219 216.785 22.3125 216.004 23.0938C215.207 23.875 214.809 24.8828 214.809 26.1172C214.809 27.3516 215.207 28.3594 216.004 29.1406C216.793 29.9297 217.844 30.3242 219.156 30.3242C220.453 30.3242 221.504 29.9297 222.309 29.1406ZM228.742 32V20.2344H238.199V22.1094H230.805V32H228.742ZM251.723 32H249.648V22.5898H249.602L242.84 32H240.227V20.2344H242.289V29.6445H242.336L249.098 20.2344H251.723V32ZM257.137 20.3164V23.668C257.137 24.5898 257.387 25.2812 257.887 25.7422C258.395 26.2031 259.219 26.4336 260.359 26.4336H263.547V20.3164H265.609V32H263.547V28.3086H260.359C258.633 28.3086 257.32 27.918 256.422 27.1367C255.523 26.3477 255.074 25.1914 255.074 23.668V20.3164H257.137ZM280.715 32H278.641V26.9141H271.281V32H269.219V20.2344H271.281V25.0391H278.641V20.2344H280.715V32ZM285.66 30.5586C284.441 29.4414 283.832 27.9609 283.832 26.1172C283.832 24.2812 284.441 22.8008 285.66 21.6758C286.871 20.5586 288.414 20 290.289 20C292.148 20 293.691 20.5586 294.918 21.6758C296.129 22.8008 296.734 24.2812 296.734 26.1172C296.734 27.9609 296.129 29.4414 294.918 30.5586C293.691 31.6758 292.148 32.2344 290.289 32.2344C288.414 32.2344 286.871 31.6758 285.66 30.5586ZM293.441 29.1406C294.23 28.3516 294.625 27.3438 294.625 26.1172C294.625 24.8906 294.23 23.8828 293.441 23.0938C292.652 22.3125 291.602 21.9219 290.289 21.9219C288.969 21.9219 287.918 22.3125 287.137 23.0938C286.34 23.875 285.941 24.8828 285.941 26.1172C285.941 27.3516 286.34 28.3594 287.137 29.1406C287.926 29.9297 288.977 30.3242 290.289 30.3242C291.586 30.3242 292.637 29.9297 293.441 29.1406ZM301.223 30.5352C300.004 29.418 299.395 27.9375 299.395 26.0938C299.395 24.25 300.004 22.7734 301.223 21.6641C302.426 20.5547 303.969 20 305.852 20C306.922 20 307.879 20.1797 308.723 20.5391C309.59 20.9062 310.246 21.3477 310.691 21.8633C311.621 22.9336 312.086 23.9141 312.086 24.8047H309.953C309.875 24.4688 309.742 24.1367 309.555 23.8086C309.359 23.4727 309.133 23.1797 308.875 22.9297C308.578 22.6484 308.16 22.4102 307.621 22.2148C307.09 22.0195 306.5 21.9219 305.852 21.9219C304.531 21.9219 303.48 22.3125 302.699 23.0938C301.902 23.875 301.504 24.875 301.504 26.0938C301.504 27.3125 301.902 28.3164 302.699 29.1055C303.488 29.9023 304.539 30.3008 305.852 30.3008C306.508 30.3008 307.102 30.2031 307.633 30.0078C308.172 29.8125 308.586 29.5664 308.875 29.2695C309.414 28.7148 309.75 28.1992 309.883 27.7227L309.953 27.418H312.086C312.086 28.293 311.621 29.2656 310.691 30.3359C310.23 30.8672 309.574 31.3125 308.723 31.6719C307.879 32.0312 306.922 32.2109 305.852 32.2109C303.977 32.2109 302.434 31.6523 301.223 30.5352ZM318.016 22.1094H313.27V20.2344H324.836V22.1094H320.078V32.0234L318.016 32V22.1094ZM329.055 24.125H331.738C335.262 24.125 337.023 25.4375 337.023 28.0625C337.023 30.6875 335.262 32 331.738 32H326.992V20.2344H329.055V24.125ZM331.738 30.1953C332.926 30.1953 333.75 30.0234 334.211 29.6797C334.672 29.3359 334.902 28.7969 334.902 28.0625C334.902 27.3281 334.672 26.7891 334.211 26.4453C333.75 26.1016 332.926 25.9297 331.738 25.9297H329.055V30.1953H331.738Z" fill="black"/>
</svg>
