<svg width="378" height="200" viewBox="0 0 378 200" fill="none" xmlns="http://www.w3.org/2000/svg">
<rect x="2" y="2" width="374" height="196" rx="42" stroke="white" stroke-width="4"/>
<path d="M2 46C2 20.5949 22.5949 0 48 0H331C356.405 0 377 20.5949 377 46H2Z" fill="white"/>
<path d="M58.9766 17.8359C58.9766 18.3047 58.8945 18.7461 58.7305 19.1602C58.5742 19.5742 58.375 19.9023 58.1328 20.1445C57.6719 20.6055 57.2344 20.9141 56.8203 21.0703L56.5742 21.1406V21.2344C56.6602 21.2422 56.7812 21.2656 56.9375 21.3047C57.0859 21.3438 57.3516 21.4492 57.7344 21.6211C58.0938 21.7852 58.4297 22.0039 58.7422 22.2773C59.0234 22.543 59.2852 22.9336 59.5273 23.4492C59.7695 23.9648 59.8906 24.5547 59.8906 25.2188C59.8906 28.4062 57.832 30 53.7148 30H46.1562V13.1953H53.293C57.082 13.2109 58.9766 14.7578 58.9766 17.8359ZM53.7148 22.4414H48.418V27.9844H53.7148C55.0117 27.9844 55.9727 27.7617 56.5977 27.3164C57.2227 26.8711 57.5352 26.1719 57.5352 25.2188C57.5352 23.3672 56.2617 22.4414 53.7148 22.4414ZM48.418 15.2109V20.4727H53.293C54.4102 20.4727 55.2461 20.2539 55.8008 19.8164C56.3555 19.3711 56.6289 18.7109 56.6211 17.8359C56.6211 16.1016 55.5117 15.2266 53.293 15.2109H48.418ZM73.6367 21.3867C73.6367 21.7695 73.5742 22.1211 73.4492 22.4414C73.3242 22.7539 73.168 22.9883 72.9805 23.1445C72.5664 23.4805 72.2148 23.668 71.9258 23.707L71.7383 23.7656V23.8828C71.918 23.8828 72.2266 23.9609 72.6641 24.1172C72.9609 24.2266 73.2344 24.375 73.4844 24.5625C73.7422 24.7734 73.957 25.0664 74.1289 25.4414C74.3086 25.8086 74.3984 26.2227 74.3984 26.6836C74.3984 27.8086 74.0039 28.6445 73.2148 29.1914C72.4258 29.7305 71.2227 30 69.6055 30H63.125V18.2344H69.1016C70.5312 18.2344 71.6445 18.5039 72.4414 19.043C73.2383 19.582 73.6367 20.3633 73.6367 21.3867ZM72.2891 26.543C72.2891 25.457 71.3945 24.9141 69.6055 24.9141H65.1875V28.1953H69.6055C71.3945 28.1953 72.2891 27.6445 72.2891 26.543ZM71.5156 21.5977C71.5156 20.5586 70.7109 20.0391 69.1016 20.0391H65.1875V23.2031H69.3359C70.0469 23.1875 70.5859 23.0352 70.9531 22.7461C71.3281 22.457 71.5156 22.0742 71.5156 21.5977ZM89.9375 24.1172L89.8672 25.1016H79.2383C79.2383 25.7734 79.6367 26.4766 80.4336 27.2109C81.2227 27.9531 82.2812 28.3242 83.6094 28.3242C84.5859 28.3242 85.3867 28.1406 86.0117 27.7734C86.5273 27.4609 86.8867 27.1797 87.0898 26.9297L87.1836 26.7656H89.6094C89.5625 26.8828 89.5117 27.0039 89.457 27.1289C89.3555 27.3086 89.1641 27.5859 88.8828 27.9609C88.5781 28.3594 88.2227 28.7148 87.8164 29.0273C87.4258 29.332 86.8516 29.6094 86.0938 29.8594C85.375 30.1094 84.5469 30.2344 83.6094 30.2344C81.6641 30.2344 80.0859 29.6797 78.875 28.5703C77.6484 27.4609 77.0352 25.9766 77.0352 24.1172C77.0352 22.2734 77.6445 20.793 78.8633 19.6758C80.0742 18.5586 81.6172 18 83.4922 18C85.3516 18 86.8945 18.5586 88.1211 19.6758C89.332 20.793 89.9375 22.2734 89.9375 24.1172ZM86.6094 21.0352C85.8281 20.293 84.7891 19.9219 83.4922 19.9219C82.1797 19.9219 81.1406 20.293 80.375 21.0352C79.6016 21.7773 79.2148 22.5078 79.2148 23.2266H87.7578C87.7578 22.5078 87.375 21.7773 86.6094 21.0352ZM93.4531 33H91.3906V28.125H92.2578C92.7734 28.125 93.1445 27.8672 93.3711 27.3516C93.5977 26.8516 93.7852 25.9727 93.9336 24.7148L94.7539 18.2344H103.66V28.125H105.43V33H103.367V30H93.4531V33ZM101.598 20.1094H96.5586L95.8555 25.6758C95.7852 26.2695 95.6719 26.7773 95.5156 27.1992C95.3594 27.6211 95.2109 27.875 95.0703 27.9609L94.8945 28.0781V28.125H101.598V20.1094ZM119.34 30H117.266V20.5898H117.219L110.457 30H107.844V18.2344H109.906V27.6445H109.953L116.715 18.2344H119.34V30ZM126.242 20.1094H121.496V18.2344H133.062V20.1094H128.305V30.0234L126.242 30V20.1094ZM146.914 24.1172L146.844 25.1016H136.215C136.215 25.7734 136.613 26.4766 137.41 27.2109C138.199 27.9531 139.258 28.3242 140.586 28.3242C141.562 28.3242 142.363 28.1406 142.988 27.7734C143.504 27.4609 143.863 27.1797 144.066 26.9297L144.16 26.7656H146.586C146.539 26.8828 146.488 27.0039 146.434 27.1289C146.332 27.3086 146.141 27.5859 145.859 27.9609C145.555 28.3594 145.199 28.7148 144.793 29.0273C144.402 29.332 143.828 29.6094 143.07 29.8594C142.352 30.1094 141.523 30.2344 140.586 30.2344C138.641 30.2344 137.062 29.6797 135.852 28.5703C134.625 27.4609 134.012 25.9766 134.012 24.1172C134.012 22.2734 134.621 20.793 135.84 19.6758C137.051 18.5586 138.594 18 140.469 18C142.328 18 143.871 18.5586 145.098 19.6758C146.309 20.793 146.914 22.2734 146.914 24.1172ZM143.586 21.0352C142.805 20.293 141.766 19.9219 140.469 19.9219C139.156 19.9219 138.117 20.293 137.352 21.0352C136.578 21.7773 136.191 22.5078 136.191 23.2266H144.734C144.734 22.5078 144.352 21.7773 143.586 21.0352ZM167.316 30H165.242V24.9141H157.883V30H155.82V18.2344H157.883V23.0391H165.242V18.2344H167.316V30ZM172.262 28.5586C171.043 27.4414 170.434 25.9609 170.434 24.1172C170.434 22.2812 171.043 20.8008 172.262 19.6758C173.473 18.5586 175.016 18 176.891 18C178.75 18 180.293 18.5586 181.52 19.6758C182.73 20.8008 183.336 22.2812 183.336 24.1172C183.336 25.9609 182.73 27.4414 181.52 28.5586C180.293 29.6758 178.75 30.2344 176.891 30.2344C175.016 30.2344 173.473 29.6758 172.262 28.5586ZM180.043 27.1406C180.832 26.3516 181.227 25.3438 181.227 24.1172C181.227 22.8906 180.832 21.8828 180.043 21.0938C179.254 20.3125 178.203 19.9219 176.891 19.9219C175.57 19.9219 174.52 20.3125 173.738 21.0938C172.941 21.875 172.543 22.8828 172.543 24.1172C172.543 25.3516 172.941 26.3594 173.738 27.1406C174.527 27.9297 175.578 28.3242 176.891 28.3242C178.188 28.3242 179.238 27.9297 180.043 27.1406ZM194.75 26.9531H191.973L188.586 20.8125H188.539V30H186.477V18.2344H189.395L193.355 25.4414L197.316 18.2344H200.246V30H198.184V20.8125H198.137L194.75 26.9531ZM216.266 24.1172L216.195 25.1016H205.566C205.566 25.7734 205.965 26.4766 206.762 27.2109C207.551 27.9531 208.609 28.3242 209.938 28.3242C210.914 28.3242 211.715 28.1406 212.34 27.7734C212.855 27.4609 213.215 27.1797 213.418 26.9297L213.512 26.7656H215.938C215.891 26.8828 215.84 27.0039 215.785 27.1289C215.684 27.3086 215.492 27.5859 215.211 27.9609C214.906 28.3594 214.551 28.7148 214.145 29.0273C213.754 29.332 213.18 29.6094 212.422 29.8594C211.703 30.1094 210.875 30.2344 209.938 30.2344C207.992 30.2344 206.414 29.6797 205.203 28.5703C203.977 27.4609 203.363 25.9766 203.363 24.1172C203.363 22.2734 203.973 20.793 205.191 19.6758C206.402 18.5586 207.945 18 209.82 18C211.68 18 213.223 18.5586 214.449 19.6758C215.66 20.793 216.266 22.2734 216.266 24.1172ZM212.938 21.0352C212.156 20.293 211.117 19.9219 209.82 19.9219C208.508 19.9219 207.469 20.293 206.703 21.0352C205.93 21.7773 205.543 22.5078 205.543 23.2266H214.086C214.086 22.5078 213.703 21.7773 212.938 21.0352ZM221.469 34.8047H219.406V18.2344H221.469V19.9922H221.562C221.703 19.7734 221.926 19.5391 222.23 19.2891C222.504 19.0703 222.797 18.8711 223.109 18.6914C223.445 18.5039 223.883 18.3438 224.422 18.2109C224.969 18.0703 225.52 18 226.074 18C227.848 18 229.332 18.5625 230.527 19.6875C231.715 20.8281 232.309 22.3047 232.309 24.1172C232.309 25.9453 231.715 27.4219 230.527 28.5469C229.332 29.6719 227.848 30.2344 226.074 30.2344C224.855 30.2344 223.863 30 223.098 29.5312C222.426 29.1172 221.969 28.7617 221.727 28.4648L221.562 28.2422H221.469V34.8047ZM229.016 27.1289C229.805 26.3398 230.199 25.3359 230.199 24.1172C230.199 22.9141 229.805 21.9102 229.016 21.1055C228.211 20.3164 227.148 19.9219 225.828 19.9219C224.5 19.9219 223.441 20.3164 222.652 21.1055C221.863 21.9102 221.469 22.9141 221.469 24.1172C221.469 25.3672 221.875 26.3789 222.688 27.1523C223.492 27.9336 224.539 28.3242 225.828 28.3242C227.156 28.3242 228.219 27.9258 229.016 27.1289ZM249.477 26.9531H246.699L243.312 20.8125H243.266V30H241.203V18.2344H244.121L248.082 25.4414L252.043 18.2344H254.973V30H252.91V20.8125H252.863L249.477 26.9531ZM259.918 28.5586C258.699 27.4414 258.09 25.9609 258.09 24.1172C258.09 22.2812 258.699 20.8008 259.918 19.6758C261.129 18.5586 262.672 18 264.547 18C266.406 18 267.949 18.5586 269.176 19.6758C270.387 20.8008 270.992 22.2812 270.992 24.1172C270.992 25.9609 270.387 27.4414 269.176 28.5586C267.949 29.6758 266.406 30.2344 264.547 30.2344C262.672 30.2344 261.129 29.6758 259.918 28.5586ZM267.699 27.1406C268.488 26.3516 268.883 25.3438 268.883 24.1172C268.883 22.8906 268.488 21.8828 267.699 21.0938C266.91 20.3125 265.859 19.9219 264.547 19.9219C263.227 19.9219 262.176 20.3125 261.395 21.0938C260.598 21.875 260.199 22.8828 260.199 24.1172C260.199 25.3516 260.598 26.3594 261.395 27.1406C262.184 27.9297 263.234 28.3242 264.547 28.3242C265.844 28.3242 266.895 27.9297 267.699 27.1406ZM274.016 33H271.953V28.125H272.82C273.336 28.125 273.707 27.8672 273.934 27.3516C274.16 26.8516 274.348 25.9727 274.496 24.7148L275.316 18.2344H284.223V28.125H285.992V33H283.93V30H274.016V33ZM282.16 20.1094H277.121L276.418 25.6758C276.348 26.2695 276.234 26.7773 276.078 27.1992C275.922 27.6211 275.773 27.875 275.633 27.9609L275.457 28.0781V28.125H282.16V20.1094ZM300.828 24.1172L300.758 25.1016H290.129C290.129 25.7734 290.527 26.4766 291.324 27.2109C292.113 27.9531 293.172 28.3242 294.5 28.3242C295.477 28.3242 296.277 28.1406 296.902 27.7734C297.418 27.4609 297.777 27.1797 297.98 26.9297L298.074 26.7656H300.5C300.453 26.8828 300.402 27.0039 300.348 27.1289C300.246 27.3086 300.055 27.5859 299.773 27.9609C299.469 28.3594 299.113 28.7148 298.707 29.0273C298.316 29.332 297.742 29.6094 296.984 29.8594C296.266 30.1094 295.438 30.2344 294.5 30.2344C292.555 30.2344 290.977 29.6797 289.766 28.5703C288.539 27.4609 287.926 25.9766 287.926 24.1172C287.926 22.2734 288.535 20.793 289.754 19.6758C290.965 18.5586 292.508 18 294.383 18C296.242 18 297.785 18.5586 299.012 19.6758C300.223 20.793 300.828 22.2734 300.828 24.1172ZM297.5 21.0352C296.719 20.293 295.68 19.9219 294.383 19.9219C293.07 19.9219 292.031 20.293 291.266 21.0352C290.492 21.7773 290.105 22.5078 290.105 23.2266H298.648C298.648 22.5078 298.266 21.7773 297.5 21.0352ZM304.848 25.2422L305.961 18.2344H314.902V30H312.84V20.1094H307.707L306.922 25.2422C306.648 27.1328 306.242 28.4375 305.703 29.1562C305.164 29.875 304.418 30.2344 303.465 30.2344C303.09 30.2344 302.754 30.1875 302.457 30.0938L302.281 30.0234V28.0547C302.539 28.1484 302.805 28.1953 303.078 28.1953C303.672 28.1953 304.098 27.8867 304.355 27.2695C304.527 26.8633 304.691 26.1875 304.848 25.2422ZM330.02 30H327.945V20.5898H327.898L321.137 30H318.523V18.2344H320.586V27.6445H320.633L327.395 18.2344H330.02V30Z" fill="black"/>
</svg>
