<svg width="378" height="200" viewBox="0 0 378 200" fill="none" xmlns="http://www.w3.org/2000/svg">
<rect x="2" y="2" width="374" height="196" rx="42" stroke="white" stroke-width="4"/>
<path d="M0 46C0 20.5949 20.5949 0 46 0H329C354.405 0 375 20.5949 375 46H0Z" fill="white"/>
<path d="M102.078 28.1719C103.047 28.1719 103.91 28.0078 104.668 27.6797C105.418 27.3594 105.988 26.9609 106.379 26.4844C107.16 25.5234 107.633 24.6641 107.797 23.9062L107.891 23.4023H110.211C110.211 24.7617 109.598 26.1836 108.371 27.668C107.754 28.418 106.902 29.0312 105.816 29.5078C104.707 29.9922 103.461 30.2344 102.078 30.2344C99.5078 30.2344 97.4688 29.4336 95.9609 27.832C94.4375 26.2383 93.6758 24.1602 93.6758 21.5977C93.6758 19.043 94.4375 16.9648 95.9609 15.3633C97.4688 13.7617 99.5078 12.9609 102.078 12.9609C103.461 12.9609 104.707 13.2031 105.816 13.6875C106.918 14.1875 107.77 14.8008 108.371 15.5273C109.598 17.0039 110.211 18.4297 110.211 19.8047H107.891C107.883 19.7891 107.875 19.7461 107.867 19.6758C107.859 19.5977 107.836 19.4922 107.797 19.3594C107.766 19.2266 107.719 19.0625 107.656 18.8672C107.414 18.1719 107.043 17.5234 106.543 16.9219C105.918 16.1562 105.082 15.6133 104.035 15.293C103.426 15.1133 102.773 15.0234 102.078 15.0234C100.18 15.0234 98.6992 15.6367 97.6367 16.8633C96.5664 18.0977 96.0312 19.6758 96.0312 21.5977C96.0312 23.5117 96.5664 25.0859 97.6367 26.3203C98.707 27.5547 100.188 28.1719 102.078 28.1719ZM115.648 34.8047H113.586V18.2344H115.648V19.9922H115.742C115.883 19.7734 116.105 19.5391 116.41 19.2891C116.684 19.0703 116.977 18.8711 117.289 18.6914C117.625 18.5039 118.062 18.3438 118.602 18.2109C119.148 18.0703 119.699 18 120.254 18C122.027 18 123.512 18.5625 124.707 19.6875C125.895 20.8281 126.488 22.3047 126.488 24.1172C126.488 25.9453 125.895 27.4219 124.707 28.5469C123.512 29.6719 122.027 30.2344 120.254 30.2344C119.035 30.2344 118.043 30 117.277 29.5312C116.605 29.1172 116.148 28.7617 115.906 28.4648L115.742 28.2422H115.648V34.8047ZM123.195 27.1289C123.984 26.3398 124.379 25.3359 124.379 24.1172C124.379 22.9141 123.984 21.9102 123.195 21.1055C122.391 20.3164 121.328 19.9219 120.008 19.9219C118.68 19.9219 117.621 20.3164 116.832 21.1055C116.043 21.9102 115.648 22.9141 115.648 24.1172C115.648 25.3672 116.055 26.3789 116.867 27.1523C117.672 27.9336 118.719 28.3242 120.008 28.3242C121.336 28.3242 122.398 27.9258 123.195 27.1289ZM130.965 28.5586C129.746 27.4414 129.137 25.9609 129.137 24.1172C129.137 22.2812 129.746 20.8008 130.965 19.6758C132.176 18.5586 133.719 18 135.594 18C137.453 18 138.996 18.5586 140.223 19.6758C141.434 20.8008 142.039 22.2812 142.039 24.1172C142.039 25.9609 141.434 27.4414 140.223 28.5586C138.996 29.6758 137.453 30.2344 135.594 30.2344C133.719 30.2344 132.176 29.6758 130.965 28.5586ZM138.746 27.1406C139.535 26.3516 139.93 25.3438 139.93 24.1172C139.93 22.8906 139.535 21.8828 138.746 21.0938C137.957 20.3125 136.906 19.9219 135.594 19.9219C134.273 19.9219 133.223 20.3125 132.441 21.0938C131.645 21.875 131.246 22.8828 131.246 24.1172C131.246 25.3516 131.645 26.3594 132.441 27.1406C133.23 27.9297 134.281 28.3242 135.594 28.3242C136.891 28.3242 137.941 27.9297 138.746 27.1406ZM156.594 30H153.863L147.242 24.1406V30H145.18V18.2344H147.242V23.9766L153.453 18.2344H156.148L149.855 24.0234L156.594 30ZM164.164 30V18.2344H173.621V20.1094H166.227V30H164.164ZM176.27 28.5586C175.051 27.4414 174.441 25.9609 174.441 24.1172C174.441 22.2812 175.051 20.8008 176.27 19.6758C177.48 18.5586 179.023 18 180.898 18C182.758 18 184.301 18.5586 185.527 19.6758C186.738 20.8008 187.344 22.2812 187.344 24.1172C187.344 25.9609 186.738 27.4414 185.527 28.5586C184.301 29.6758 182.758 30.2344 180.898 30.2344C179.023 30.2344 177.48 29.6758 176.27 28.5586ZM184.051 27.1406C184.84 26.3516 185.234 25.3438 185.234 24.1172C185.234 22.8906 184.84 21.8828 184.051 21.0938C183.262 20.3125 182.211 19.9219 180.898 19.9219C179.578 19.9219 178.527 20.3125 177.746 21.0938C176.949 21.875 176.551 22.8828 176.551 24.1172C176.551 25.3516 176.949 26.3594 177.746 27.1406C178.535 27.9297 179.586 28.3242 180.898 28.3242C182.195 28.3242 183.246 27.9297 184.051 27.1406ZM190.367 33H188.305V28.125H189.172C189.688 28.125 190.059 27.8672 190.285 27.3516C190.512 26.8516 190.699 25.9727 190.848 24.7148L191.668 18.2344H200.574V28.125H202.344V33H200.281V30H190.367V33ZM198.512 20.1094H193.473L192.77 25.6758C192.699 26.2695 192.586 26.7773 192.43 27.1992C192.273 27.6211 192.125 27.875 191.984 27.9609L191.809 28.0781V28.125H198.512V20.1094ZM216.254 30H214.18V24.9141H206.82V30H204.758V18.2344H206.82V23.0391H214.18V18.2344H216.254V30ZM221.199 28.5586C219.98 27.4414 219.371 25.9609 219.371 24.1172C219.371 22.2812 219.98 20.8008 221.199 19.6758C222.41 18.5586 223.953 18 225.828 18C227.688 18 229.23 18.5586 230.457 19.6758C231.668 20.8008 232.273 22.2812 232.273 24.1172C232.273 25.9609 231.668 27.4414 230.457 28.5586C229.23 29.6758 227.688 30.2344 225.828 30.2344C223.953 30.2344 222.41 29.6758 221.199 28.5586ZM228.98 27.1406C229.77 26.3516 230.164 25.3438 230.164 24.1172C230.164 22.8906 229.77 21.8828 228.98 21.0938C228.191 20.3125 227.141 19.9219 225.828 19.9219C224.508 19.9219 223.457 20.3125 222.676 21.0938C221.879 21.875 221.48 22.8828 221.48 24.1172C221.48 25.3516 221.879 26.3594 222.676 27.1406C223.465 27.9297 224.516 28.3242 225.828 28.3242C227.125 28.3242 228.176 27.9297 228.98 27.1406ZM236.762 28.5352C235.543 27.418 234.934 25.9375 234.934 24.0938C234.934 22.25 235.543 20.7734 236.762 19.6641C237.965 18.5547 239.508 18 241.391 18C242.461 18 243.418 18.1797 244.262 18.5391C245.129 18.9062 245.785 19.3477 246.23 19.8633C247.16 20.9336 247.625 21.9141 247.625 22.8047H245.492C245.414 22.4688 245.281 22.1367 245.094 21.8086C244.898 21.4727 244.672 21.1797 244.414 20.9297C244.117 20.6484 243.699 20.4102 243.16 20.2148C242.629 20.0195 242.039 19.9219 241.391 19.9219C240.07 19.9219 239.02 20.3125 238.238 21.0938C237.441 21.875 237.043 22.875 237.043 24.0938C237.043 25.3125 237.441 26.3164 238.238 27.1055C239.027 27.9023 240.078 28.3008 241.391 28.3008C242.047 28.3008 242.641 28.2031 243.172 28.0078C243.711 27.8125 244.125 27.5664 244.414 27.2695C244.953 26.7148 245.289 26.1992 245.422 25.7227L245.492 25.418H247.625C247.625 26.293 247.16 27.2656 246.23 28.3359C245.77 28.8672 245.113 29.3125 244.262 29.6719C243.418 30.0312 242.461 30.2109 241.391 30.2109C239.516 30.2109 237.973 29.6523 236.762 28.5352ZM253.555 20.1094H248.809V18.2344H260.375V20.1094H255.617V30.0234L253.555 30V20.1094ZM274.027 30H271.953V20.5898H271.906L265.145 30H262.531V18.2344H264.594V27.6445H264.641L271.402 18.2344H274.027V30Z" fill="black"/>
<path d="M128.18 130H126.117V125.125H126.984C127.5 125.125 127.871 124.867 128.098 124.352C128.324 123.852 128.512 122.973 128.66 121.715L129.48 115.234H138.387V125.125H140.156V130H138.094V127H128.18V130ZM136.324 117.109H131.285L130.582 122.676C130.512 123.27 130.398 123.777 130.242 124.199C130.086 124.621 129.938 124.875 129.797 124.961L129.621 125.078V125.125H136.324V117.109ZM143.918 125.559C142.699 124.441 142.09 122.961 142.09 121.117C142.09 119.281 142.699 117.801 143.918 116.676C145.129 115.559 146.672 115 148.547 115C150.406 115 151.949 115.559 153.176 116.676C154.387 117.801 154.992 119.281 154.992 121.117C154.992 122.961 154.387 124.441 153.176 125.559C151.949 126.676 150.406 127.234 148.547 127.234C146.672 127.234 145.129 126.676 143.918 125.559ZM151.699 124.141C152.488 123.352 152.883 122.344 152.883 121.117C152.883 119.891 152.488 118.883 151.699 118.094C150.91 117.312 149.859 116.922 148.547 116.922C147.227 116.922 146.176 117.312 145.395 118.094C144.598 118.875 144.199 119.883 144.199 121.117C144.199 122.352 144.598 123.359 145.395 124.141C146.184 124.93 147.234 125.324 148.547 125.324C149.844 125.324 150.895 124.93 151.699 124.141ZM166.652 112.984L163.055 115.82V113.277L166.852 110.195H168.914V127H166.652V112.984ZM185.953 127H172.395V125.219C172.395 124.461 172.594 123.762 172.992 123.121C173.398 122.473 173.941 121.926 174.621 121.48C175.582 120.855 177.113 120.09 179.215 119.184C179.863 118.91 180.426 118.645 180.902 118.387C181.379 118.129 181.836 117.832 182.273 117.496C182.711 117.152 183.043 116.777 183.27 116.371C183.504 115.957 183.621 115.516 183.621 115.047C183.621 114.047 183.258 113.293 182.531 112.785C181.805 112.277 180.754 112.023 179.379 112.023C176.551 112.023 175.133 113.152 175.125 115.41V115.891H172.875V115.41C172.875 113.699 173.461 112.363 174.633 111.402C175.789 110.441 177.371 109.961 179.379 109.961C181.355 109.961 182.938 110.414 184.125 111.32C185.297 112.234 185.883 113.477 185.883 115.047C185.883 115.852 185.684 116.605 185.285 117.309C184.887 118.012 184.348 118.602 183.668 119.078C182.59 119.852 181.086 120.645 179.156 121.457C178.477 121.738 177.91 121.988 177.457 122.207C177.012 122.426 176.562 122.684 176.109 122.98C175.656 123.277 175.316 123.594 175.09 123.93C174.871 124.258 174.762 124.609 174.762 124.984H185.953V127ZM202.371 124.809C201.004 126.426 199.129 127.234 196.746 127.234C194.363 127.234 192.488 126.426 191.121 124.809C189.746 123.199 189.059 121.129 189.059 118.598C189.059 116.082 189.746 114.012 191.121 112.387C192.488 110.77 194.363 109.961 196.746 109.961C199.129 109.961 201.004 110.77 202.371 112.387C203.738 113.996 204.422 116.066 204.422 118.598C204.422 121.137 203.738 123.207 202.371 124.809ZM202.066 118.598C202.066 116.668 201.605 115.09 200.684 113.863C199.762 112.637 198.449 112.023 196.746 112.023C195.043 112.023 193.73 112.637 192.809 113.863C191.879 115.098 191.414 116.676 191.414 118.598C191.414 120.512 191.879 122.086 192.809 123.32C193.738 124.555 195.051 125.172 196.746 125.172C198.441 125.172 199.754 124.555 200.684 123.32C201.605 122.094 202.066 120.52 202.066 118.598ZM214.559 122.242L215.672 115.234H224.613V127H222.551V117.109H217.418L216.633 122.242C216.359 124.133 215.953 125.438 215.414 126.156C214.875 126.875 214.129 127.234 213.176 127.234C212.801 127.234 212.465 127.188 212.168 127.094L211.992 127.023V125.055C212.25 125.148 212.516 125.195 212.789 125.195C213.383 125.195 213.809 124.887 214.066 124.27C214.238 123.863 214.402 123.188 214.559 122.242ZM240.656 121.117L240.586 122.102H229.957C229.957 122.773 230.355 123.477 231.152 124.211C231.941 124.953 233 125.324 234.328 125.324C235.305 125.324 236.105 125.141 236.73 124.773C237.246 124.461 237.605 124.18 237.809 123.93L237.902 123.766H240.328C240.281 123.883 240.23 124.004 240.176 124.129C240.074 124.309 239.883 124.586 239.602 124.961C239.297 125.359 238.941 125.715 238.535 126.027C238.145 126.332 237.57 126.609 236.812 126.859C236.094 127.109 235.266 127.234 234.328 127.234C232.383 127.234 230.805 126.68 229.594 125.57C228.367 124.461 227.754 122.977 227.754 121.117C227.754 119.273 228.363 117.793 229.582 116.676C230.793 115.559 232.336 115 234.211 115C236.07 115 237.613 115.559 238.84 116.676C240.051 117.793 240.656 119.273 240.656 121.117ZM237.328 118.035C236.547 117.293 235.508 116.922 234.211 116.922C232.898 116.922 231.859 117.293 231.094 118.035C230.32 118.777 229.934 119.508 229.934 120.227H238.477C238.477 119.508 238.094 118.777 237.328 118.035ZM246.609 117.109H241.863V115.234H253.43V117.109H248.672V127.023L246.609 127V117.109Z" fill="white"/>
</svg>
