<svg width="378" height="200" viewBox="0 0 378 200" fill="none" xmlns="http://www.w3.org/2000/svg">
<rect x="2" y="2" width="374" height="196" rx="42" stroke="white" stroke-width="4"/>
<path d="M0 46C0 20.5949 20.5949 0 46 0H329C354.405 0 375 20.5949 375 46H0Z" fill="white"/>
<path d="M66.2773 30H64.0156V15.2109H54.418V30H52.1562V13.1953H66.2773V30ZM72.2891 34.8047H70.2266V18.2344H72.2891V19.9922H72.3828C72.5234 19.7734 72.7461 19.5391 73.0508 19.2891C73.3242 19.0703 73.6172 18.8711 73.9297 18.6914C74.2656 18.5039 74.7031 18.3438 75.2422 18.2109C75.7891 18.0703 76.3398 18 76.8945 18C78.668 18 80.1523 18.5625 81.3477 19.6875C82.5352 20.8281 83.1289 22.3047 83.1289 24.1172C83.1289 25.9453 82.5352 27.4219 81.3477 28.5469C80.1523 29.6719 78.668 30.2344 76.8945 30.2344C75.6758 30.2344 74.6836 30 73.918 29.5312C73.2461 29.1172 72.7891 28.7617 72.5469 28.4648L72.3828 28.2422H72.2891V34.8047ZM79.8359 27.1289C80.625 26.3398 81.0195 25.3359 81.0195 24.1172C81.0195 22.9141 80.625 21.9102 79.8359 21.1055C79.0312 20.3164 77.9688 19.9219 76.6484 19.9219C75.3203 19.9219 74.2617 20.3164 73.4727 21.1055C72.6836 21.9102 72.2891 22.9141 72.2891 24.1172C72.2891 25.3672 72.6953 26.3789 73.5078 27.1523C74.3125 27.9336 75.3594 28.3242 76.6484 28.3242C77.9766 28.3242 79.0391 27.9258 79.8359 27.1289ZM87.6055 28.5586C86.3867 27.4414 85.7773 25.9609 85.7773 24.1172C85.7773 22.2812 86.3867 20.8008 87.6055 19.6758C88.8164 18.5586 90.3594 18 92.2344 18C94.0938 18 95.6367 18.5586 96.8633 19.6758C98.0742 20.8008 98.6797 22.2812 98.6797 24.1172C98.6797 25.9609 98.0742 27.4414 96.8633 28.5586C95.6367 29.6758 94.0938 30.2344 92.2344 30.2344C90.3594 30.2344 88.8164 29.6758 87.6055 28.5586ZM95.3867 27.1406C96.1758 26.3516 96.5703 25.3438 96.5703 24.1172C96.5703 22.8906 96.1758 21.8828 95.3867 21.0938C94.5977 20.3125 93.5469 19.9219 92.2344 19.9219C90.9141 19.9219 89.8633 20.3125 89.082 21.0938C88.2852 21.875 87.8867 22.8828 87.8867 24.1172C87.8867 25.3516 88.2852 26.3594 89.082 27.1406C89.8711 27.9297 90.9219 28.3242 92.2344 28.3242C93.5312 28.3242 94.582 27.9297 95.3867 27.1406ZM113.316 30H111.242V20.5898H111.195L104.434 30H101.82V18.2344H103.883V27.6445H103.93L110.691 18.2344H113.316V30ZM127.777 26.6367C127.777 27.5195 127.5 28.2383 126.945 28.793C126.383 29.3477 125.699 29.7266 124.895 29.9297C124.113 30.1328 123.164 30.2344 122.047 30.2344C118.234 30.2344 116.32 28.9727 116.305 26.4492V26.2031H118.426V26.4492C118.426 27.1211 118.711 27.6016 119.281 27.8906C119.859 28.1797 120.781 28.3242 122.047 28.3242C124.461 28.3242 125.668 27.7617 125.668 26.6367C125.668 26.0352 125.383 25.6094 124.812 25.3594C124.242 25.1094 123.32 24.9844 122.047 24.9844H120.219V23.1094H122.41C124.387 23.0625 125.367 22.5273 125.352 21.5039C125.352 20.4492 124.227 19.9219 121.977 19.9219C120.883 19.9219 120.043 20.0859 119.457 20.4141C118.879 20.7344 118.59 21.1602 118.59 21.6914V21.7969H116.48V21.6914C116.48 20.4883 117 19.5703 118.039 18.9375C119.086 18.3125 120.398 18 121.977 18C123.609 18 124.934 18.2852 125.949 18.8555C126.965 19.4258 127.473 20.2852 127.473 21.4336C127.473 22.0273 127.285 22.5234 126.91 22.9219C126.52 23.3281 126.145 23.582 125.785 23.6836L125.234 23.8594V23.9062C125.578 24 125.875 24.1055 126.125 24.2227C126.406 24.3555 126.664 24.5156 126.898 24.7031C127.141 24.9062 127.348 25.1836 127.52 25.5352C127.691 25.8789 127.777 26.2461 127.777 26.6367ZM141.418 21.3867C141.418 21.7695 141.355 22.1211 141.23 22.4414C141.105 22.7539 140.949 22.9883 140.762 23.1445C140.348 23.4805 139.996 23.668 139.707 23.707L139.52 23.7656V23.8828C139.699 23.8828 140.008 23.9609 140.445 24.1172C140.742 24.2266 141.016 24.375 141.266 24.5625C141.523 24.7734 141.738 25.0664 141.91 25.4414C142.09 25.8086 142.18 26.2227 142.18 26.6836C142.18 27.8086 141.785 28.6445 140.996 29.1914C140.207 29.7305 139.004 30 137.387 30H130.906V18.2344H136.883C138.312 18.2344 139.426 18.5039 140.223 19.043C141.02 19.582 141.418 20.3633 141.418 21.3867ZM140.07 26.543C140.07 25.457 139.176 24.9141 137.387 24.9141H132.969V28.1953H137.387C139.176 28.1953 140.07 27.6445 140.07 26.543ZM139.297 21.5977C139.297 20.5586 138.492 20.0391 136.883 20.0391H132.969V23.2031H137.117C137.828 23.1875 138.367 23.0352 138.734 22.7461C139.109 22.457 139.297 22.0742 139.297 21.5977ZM146.645 28.5586C145.426 27.4414 144.816 25.9609 144.816 24.1172C144.816 22.2812 145.426 20.8008 146.645 19.6758C147.855 18.5586 149.398 18 151.273 18C153.133 18 154.676 18.5586 155.902 19.6758C157.113 20.8008 157.719 22.2812 157.719 24.1172C157.719 25.9609 157.113 27.4414 155.902 28.5586C154.676 29.6758 153.133 30.2344 151.273 30.2344C149.398 30.2344 147.855 29.6758 146.645 28.5586ZM154.426 27.1406C155.215 26.3516 155.609 25.3438 155.609 24.1172C155.609 22.8906 155.215 21.8828 154.426 21.0938C153.637 20.3125 152.586 19.9219 151.273 19.9219C149.953 19.9219 148.902 20.3125 148.121 21.0938C147.324 21.875 146.926 22.8828 146.926 24.1172C146.926 25.3516 147.324 26.3594 148.121 27.1406C148.91 27.9297 149.961 28.3242 151.273 28.3242C152.57 28.3242 153.621 27.9297 154.426 27.1406ZM160.742 33H158.68V28.125H159.547C160.062 28.125 160.434 27.8672 160.66 27.3516C160.887 26.8516 161.074 25.9727 161.223 24.7148L162.043 18.2344H170.949V28.125H172.719V33H170.656V30H160.742V33ZM168.887 20.1094H163.848L163.145 25.6758C163.074 26.2695 162.961 26.7773 162.805 27.1992C162.648 27.6211 162.5 27.875 162.359 27.9609L162.184 28.0781V28.125H168.887V20.1094ZM176.48 28.5352C175.262 27.418 174.652 25.9375 174.652 24.0938C174.652 22.25 175.262 20.7734 176.48 19.6641C177.684 18.5547 179.227 18 181.109 18C182.18 18 183.137 18.1797 183.98 18.5391C184.848 18.9062 185.504 19.3477 185.949 19.8633C186.879 20.9336 187.344 21.9141 187.344 22.8047H185.211C185.133 22.4688 185 22.1367 184.812 21.8086C184.617 21.4727 184.391 21.1797 184.133 20.9297C183.836 20.6484 183.418 20.4102 182.879 20.2148C182.348 20.0195 181.758 19.9219 181.109 19.9219C179.789 19.9219 178.738 20.3125 177.957 21.0938C177.16 21.875 176.762 22.875 176.762 24.0938C176.762 25.3125 177.16 26.3164 177.957 27.1055C178.746 27.9023 179.797 28.3008 181.109 28.3008C181.766 28.3008 182.359 28.2031 182.891 28.0078C183.43 27.8125 183.844 27.5664 184.133 27.2695C184.672 26.7148 185.008 26.1992 185.141 25.7227L185.211 25.418H187.344C187.344 26.293 186.879 27.2656 185.949 28.3359C185.488 28.8672 184.832 29.3125 183.98 29.6719C183.137 30.0312 182.18 30.2109 181.109 30.2109C179.234 30.2109 177.691 29.6523 176.48 28.5352ZM193.273 20.1094H188.527V18.2344H200.094V20.1094H195.336V30.0234L193.273 30V20.1094ZM212.762 21.3867C212.762 21.7695 212.699 22.1211 212.574 22.4414C212.449 22.7539 212.293 22.9883 212.105 23.1445C211.691 23.4805 211.34 23.668 211.051 23.707L210.863 23.7656V23.8828C211.043 23.8828 211.352 23.9609 211.789 24.1172C212.086 24.2266 212.359 24.375 212.609 24.5625C212.867 24.7734 213.082 25.0664 213.254 25.4414C213.434 25.8086 213.523 26.2227 213.523 26.6836C213.523 27.8086 213.129 28.6445 212.34 29.1914C211.551 29.7305 210.348 30 208.73 30H202.25V18.2344H208.227C209.656 18.2344 210.77 18.5039 211.566 19.043C212.363 19.582 212.762 20.3633 212.762 21.3867ZM211.414 26.543C211.414 25.457 210.52 24.9141 208.73 24.9141H204.312V28.1953H208.73C210.52 28.1953 211.414 27.6445 211.414 26.543ZM210.641 21.5977C210.641 20.5586 209.836 20.0391 208.227 20.0391H204.312V23.2031H208.461C209.172 23.1875 209.711 23.0352 210.078 22.7461C210.453 22.457 210.641 22.0742 210.641 21.5977ZM217.988 28.5586C216.77 27.4414 216.16 25.9609 216.16 24.1172C216.16 22.2812 216.77 20.8008 217.988 19.6758C219.199 18.5586 220.742 18 222.617 18C224.477 18 226.02 18.5586 227.246 19.6758C228.457 20.8008 229.062 22.2812 229.062 24.1172C229.062 25.9609 228.457 27.4414 227.246 28.5586C226.02 29.6758 224.477 30.2344 222.617 30.2344C220.742 30.2344 219.199 29.6758 217.988 28.5586ZM225.77 27.1406C226.559 26.3516 226.953 25.3438 226.953 24.1172C226.953 22.8906 226.559 21.8828 225.77 21.0938C224.98 20.3125 223.93 19.9219 222.617 19.9219C221.297 19.9219 220.246 20.3125 219.465 21.0938C218.668 21.875 218.27 22.8828 218.27 24.1172C218.27 25.3516 218.668 26.3594 219.465 27.1406C220.254 27.9297 221.305 28.3242 222.617 28.3242C223.914 28.3242 224.965 27.9297 225.77 27.1406ZM246.242 28.1719C247.211 28.1719 248.074 28.0078 248.832 27.6797C249.582 27.3594 250.152 26.9609 250.543 26.4844C251.324 25.5234 251.797 24.6641 251.961 23.9062L252.055 23.4023H254.375C254.375 24.7617 253.762 26.1836 252.535 27.668C251.918 28.418 251.066 29.0312 249.98 29.5078C248.871 29.9922 247.625 30.2344 246.242 30.2344C243.672 30.2344 241.633 29.4336 240.125 27.832C238.602 26.2383 237.84 24.1602 237.84 21.5977C237.84 19.043 238.602 16.9648 240.125 15.3633C241.633 13.7617 243.672 12.9609 246.242 12.9609C247.625 12.9609 248.871 13.2031 249.98 13.6875C251.082 14.1875 251.934 14.8008 252.535 15.5273C253.762 17.0039 254.375 18.4297 254.375 19.8047H252.055C252.047 19.7891 252.039 19.7461 252.031 19.6758C252.023 19.5977 252 19.4922 251.961 19.3594C251.93 19.2266 251.883 19.0625 251.82 18.8672C251.578 18.1719 251.207 17.5234 250.707 16.9219C250.082 16.1562 249.246 15.6133 248.199 15.293C247.59 15.1133 246.938 15.0234 246.242 15.0234C244.344 15.0234 242.863 15.6367 241.801 16.8633C240.73 18.0977 240.195 19.6758 240.195 21.5977C240.195 23.5117 240.73 25.0859 241.801 26.3203C242.871 27.5547 244.352 28.1719 246.242 28.1719ZM270.934 27.8086C269.566 29.4258 267.691 30.2344 265.309 30.2344C262.926 30.2344 261.051 29.4258 259.684 27.8086C258.309 26.1992 257.621 24.1289 257.621 21.5977C257.621 19.082 258.309 17.0117 259.684 15.3867C261.051 13.7695 262.926 12.9609 265.309 12.9609C267.691 12.9609 269.566 13.7695 270.934 15.3867C272.301 16.9961 272.984 19.0664 272.984 21.5977C272.984 24.1367 272.301 26.207 270.934 27.8086ZM270.629 21.5977C270.629 19.668 270.168 18.0898 269.246 16.8633C268.324 15.6367 267.012 15.0234 265.309 15.0234C263.605 15.0234 262.293 15.6367 261.371 16.8633C260.441 18.0977 259.977 19.6758 259.977 21.5977C259.977 23.5117 260.441 25.0859 261.371 26.3203C262.301 27.5547 263.613 28.1719 265.309 28.1719C267.004 28.1719 268.316 27.5547 269.246 26.3203C270.168 25.0938 270.629 23.5195 270.629 21.5977ZM283.332 19.9219H275.387V18.7734C275.387 18 275.602 17.375 276.031 16.8984C276.461 16.4141 276.98 16.0664 277.59 15.8555C278.309 15.6289 278.922 15.4453 279.43 15.3047C280.023 15.1484 280.539 14.9375 280.977 14.6719C281.398 14.4141 281.609 14.0508 281.609 13.582C281.609 12.6211 280.945 12.1406 279.617 12.1406C278.961 12.1406 278.461 12.2812 278.117 12.5625C277.773 12.8438 277.602 13.2227 277.602 13.6992V13.9219H275.773V13.6992C275.773 12.7148 276.105 11.9453 276.77 11.3906C277.441 10.8359 278.391 10.5586 279.617 10.5586C280.828 10.5586 281.77 10.8281 282.441 11.3672C283.105 11.9141 283.438 12.6211 283.438 13.4883C283.438 14.2227 283.227 14.8242 282.805 15.293C282.383 15.7617 281.867 16.0977 281.258 16.3008C280.641 16.5039 280.039 16.6758 279.453 16.8164C278.844 16.9648 278.328 17.1523 277.906 17.3789C277.477 17.6133 277.262 17.9336 277.262 18.3398H283.332V19.9219ZM294.125 34.125H298.309V36H292.062V10.5586H298.309V12.4336H294.125V34.125ZM301.473 25.2422L302.586 18.2344H311.527V30H309.465V20.1094H304.332L303.547 25.2422C303.273 27.1328 302.867 28.4375 302.328 29.1562C301.789 29.875 301.043 30.2344 300.09 30.2344C299.715 30.2344 299.379 30.1875 299.082 30.0938L298.906 30.0234V28.0547C299.164 28.1484 299.43 28.1953 299.703 28.1953C300.297 28.1953 300.723 27.8867 300.98 27.2695C301.152 26.8633 301.316 26.1875 301.473 25.2422ZM315.312 32.8828H313.344L322.484 13.1953H324.453L315.312 32.8828ZM328.074 18.3164V21.668C328.074 22.5898 328.324 23.2812 328.824 23.7422C329.332 24.2031 330.156 24.4336 331.297 24.4336H334.484V18.3164H336.547V30H334.484V26.3086H331.297C329.57 26.3086 328.258 25.918 327.359 25.1367C326.461 24.3477 326.012 23.1914 326.012 21.668V18.3164H328.074ZM345.066 36H338.832V34.125H343.004V12.4336H338.832V10.5586H345.066V36Z" fill="black"/>
<path d="M153.883 127H140.324V125.219C140.324 124.461 140.523 123.762 140.922 123.121C141.328 122.473 141.871 121.926 142.551 121.48C143.512 120.855 145.043 120.09 147.145 119.184C147.793 118.91 148.355 118.645 148.832 118.387C149.309 118.129 149.766 117.832 150.203 117.496C150.641 117.152 150.973 116.777 151.199 116.371C151.434 115.957 151.551 115.516 151.551 115.047C151.551 114.047 151.188 113.293 150.461 112.785C149.734 112.277 148.684 112.023 147.309 112.023C144.48 112.023 143.062 113.152 143.055 115.41V115.891H140.805V115.41C140.805 113.699 141.391 112.363 142.562 111.402C143.719 110.441 145.301 109.961 147.309 109.961C149.285 109.961 150.867 110.414 152.055 111.32C153.227 112.234 153.812 113.477 153.812 115.047C153.812 115.852 153.613 116.605 153.215 117.309C152.816 118.012 152.277 118.602 151.598 119.078C150.52 119.852 149.016 120.645 147.086 121.457C146.406 121.738 145.84 121.988 145.387 122.207C144.941 122.426 144.492 122.684 144.039 122.98C143.586 123.277 143.246 123.594 143.02 123.93C142.801 124.258 142.691 124.609 142.691 124.984H153.883V127ZM170.301 124.809C168.934 126.426 167.059 127.234 164.676 127.234C162.293 127.234 160.418 126.426 159.051 124.809C157.676 123.199 156.988 121.129 156.988 118.598C156.988 116.082 157.676 114.012 159.051 112.387C160.418 110.77 162.293 109.961 164.676 109.961C167.059 109.961 168.934 110.77 170.301 112.387C171.668 113.996 172.352 116.066 172.352 118.598C172.352 121.137 171.668 123.207 170.301 124.809ZM169.996 118.598C169.996 116.668 169.535 115.09 168.613 113.863C167.691 112.637 166.379 112.023 164.676 112.023C162.973 112.023 161.66 112.637 160.738 113.863C159.809 115.098 159.344 116.676 159.344 118.598C159.344 120.512 159.809 122.086 160.738 123.32C161.668 124.555 162.98 125.172 164.676 125.172C166.371 125.172 167.684 124.555 168.613 123.32C169.535 122.094 169.996 120.52 169.996 118.598ZM182.488 122.242L183.602 115.234H192.543V127H190.48V117.109H185.348L184.562 122.242C184.289 124.133 183.883 125.438 183.344 126.156C182.805 126.875 182.059 127.234 181.105 127.234C180.73 127.234 180.395 127.188 180.098 127.094L179.922 127.023V125.055C180.18 125.148 180.445 125.195 180.719 125.195C181.312 125.195 181.738 124.887 181.996 124.27C182.168 123.863 182.332 123.188 182.488 122.242ZM196.328 129.883H194.359L203.5 110.195H205.469L196.328 129.883ZM209.09 115.316V118.668C209.09 119.59 209.34 120.281 209.84 120.742C210.348 121.203 211.172 121.434 212.312 121.434H215.5V115.316H217.562V127H215.5V123.309H212.312C210.586 123.309 209.273 122.918 208.375 122.137C207.477 121.348 207.027 120.191 207.027 118.668V115.316H209.09Z" fill="white"/>
</svg>
