<svg width="86" height="129" viewBox="0 0 86 129" fill="none" xmlns="http://www.w3.org/2000/svg">
<path d="M5.71711 99.4044C1.93249 108.64 2.00008 114.2 2.00008 114.2C2.15008 118.123 1.39572 122.044 5.71711 124.848C10.8983 128.211 74.5677 127.177 79.4947 124.848C84 122.719 84 122.943 84 114.2C84 98.956 64.2886 66.8615 53.3628 48.2923V7.71648C57.3049 7.71648 57.9807 2 53.3628 2H30.8353C26.8928 2 27.0054 7.71648 30.8353 7.71648C30.7227 20.233 30.565 45.8712 30.8353 48.2923C31.1732 51.3187 10.4479 87.8593 5.71711 99.4044Z" fill="#1B004E" stroke="white" stroke-width="4" stroke-linejoin="round"/>
</svg>
