<svg width="79" height="119" viewBox="0 0 79 119" fill="none" xmlns="http://www.w3.org/2000/svg">
<path d="M62.5262 117H13.5962C12.8446 116.364 10.4169 114.305 6.7189 111.16C3.02095 108.016 2.09647 100.267 2.09648 96.7852C1.37493 93.4609 4.87745 84.0199 6.7189 79.7148C8.41003 73.9873 18.2186 51.9756 21.0371 48.8311C23.292 46.3154 27.1628 44.6383 28.8163 44.1143V6.49219C25.9978 6.49219 25.9978 2 28.8163 2H50.0118C52.9431 2 52.6049 6.49219 50.0118 6.49219V44.1143C52.3568 45.1924 55.7992 47.708 57.2273 48.8311C59.1214 50.6279 67.9378 69.3828 71.771 79.7148C74.021 85.7793 77.4206 92.6299 76.9571 96.7852C76.0552 104.871 75.1533 107.454 71.771 111.16C69.2192 113.956 64.8562 116.438 62.5262 117Z" fill="#1B004E" stroke="white" stroke-width="4" stroke-linejoin="round"/>
</svg>
