<svg width="51" height="49" viewBox="0 0 51 49" fill="none" xmlns="http://www.w3.org/2000/svg">
<g clip-path="url(#paint0_diamond_92_6_clip_path)" data-figma-skip-parse="true"><g transform="matrix(-0.0063894 0.00378236 -0.00378236 -0.0063894 35.7641 16.9926)"><rect x="0" y="0" width="1080.81" height="1080.81" fill="url(#paint0_diamond_92_6)" opacity="1" shape-rendering="crispEdges"/><rect x="0" y="0" width="1080.81" height="1080.81" transform="scale(1 -1)" fill="url(#paint0_diamond_92_6)" opacity="1" shape-rendering="crispEdges"/><rect x="0" y="0" width="1080.81" height="1080.81" transform="scale(-1 1)" fill="url(#paint0_diamond_92_6)" opacity="1" shape-rendering="crispEdges"/><rect x="0" y="0" width="1080.81" height="1080.81" transform="scale(-1)" fill="url(#paint0_diamond_92_6)" opacity="1" shape-rendering="crispEdges"/></g></g><circle cx="35.764" cy="16.9926" r="7.125" transform="rotate(59.3756 35.764 16.9926)" data-figma-gradient-fill="{&#34;type&#34;:&#34;GRADIENT_DIAMOND&#34;,&#34;stops&#34;:[{&#34;color&#34;:{&#34;r&#34;:1.0,&#34;g&#34;:1.0,&#34;b&#34;:1.0,&#34;a&#34;:1.0},&#34;position&#34;:0.0},{&#34;color&#34;:{&#34;r&#34;:0.58039218187332153,&#34;g&#34;:0.0,&#34;b&#34;:0.79215687513351440,&#34;a&#34;:1.0},&#34;position&#34;:1.0}],&#34;stopsVar&#34;:[{&#34;color&#34;:{&#34;r&#34;:1.0,&#34;g&#34;:1.0,&#34;b&#34;:1.0,&#34;a&#34;:1.0},&#34;position&#34;:0.0},{&#34;color&#34;:{&#34;r&#34;:0.58039218187332153,&#34;g&#34;:0.0,&#34;b&#34;:0.79215687513351440,&#34;a&#34;:1.0},&#34;position&#34;:1.0}],&#34;transform&#34;:{&#34;m00&#34;:-12.778796195983887,&#34;m01&#34;:-7.5647110939025879,&#34;m02&#34;:45.935806274414062,&#34;m10&#34;:7.5647110939025879,&#34;m11&#34;:-12.778796195983887,&#34;m12&#34;:19.599596023559570},&#34;opacity&#34;:1.0,&#34;blendMode&#34;:&#34;NORMAL&#34;,&#34;visible&#34;:true}" stroke="white" stroke-width="0.6"/>
<g clip-path="url(#paint1_diamond_92_6_clip_path)" data-figma-skip-parse="true"><g transform="matrix(-0.0118752 0.00702983 -0.00702983 -0.0118752 25.4668 26.8357)"><rect x="0" y="0" width="1043.48" height="1043.48" fill="url(#paint1_diamond_92_6)" opacity="1" shape-rendering="crispEdges"/><rect x="0" y="0" width="1043.48" height="1043.48" transform="scale(1 -1)" fill="url(#paint1_diamond_92_6)" opacity="1" shape-rendering="crispEdges"/><rect x="0" y="0" width="1043.48" height="1043.48" transform="scale(-1 1)" fill="url(#paint1_diamond_92_6)" opacity="1" shape-rendering="crispEdges"/><rect x="0" y="0" width="1043.48" height="1043.48" transform="scale(-1)" fill="url(#paint1_diamond_92_6)" opacity="1" shape-rendering="crispEdges"/></g></g><path d="M32.3439 38.4528C25.9279 42.2509 17.6478 40.1287 13.8498 33.7128C10.0517 27.2968 12.1739 19.0167 18.5898 15.2187C25.0058 11.4206 33.2859 13.5428 37.0839 19.9587C40.882 26.3747 38.7598 34.6548 32.3439 38.4528Z" data-figma-gradient-fill="{&#34;type&#34;:&#34;GRADIENT_DIAMOND&#34;,&#34;stops&#34;:[{&#34;color&#34;:{&#34;r&#34;:0.58039218187332153,&#34;g&#34;:0.0,&#34;b&#34;:0.79215687513351440,&#34;a&#34;:1.0},&#34;position&#34;:0.0},{&#34;color&#34;:{&#34;r&#34;:1.0,&#34;g&#34;:1.0,&#34;b&#34;:1.0,&#34;a&#34;:1.0},&#34;position&#34;:1.0}],&#34;stopsVar&#34;:[{&#34;color&#34;:{&#34;r&#34;:0.58039218187332153,&#34;g&#34;:0.0,&#34;b&#34;:0.79215687513351440,&#34;a&#34;:1.0},&#34;position&#34;:0.0},{&#34;color&#34;:{&#34;r&#34;:1.0,&#34;g&#34;:1.0,&#34;b&#34;:1.0,&#34;a&#34;:1.0},&#34;position&#34;:1.0}],&#34;transform&#34;:{&#34;m00&#34;:-23.750490188598633,&#34;m01&#34;:-14.059664726257324,&#34;m02&#34;:44.371921539306641,&#34;m10&#34;:14.059665679931641,&#34;m11&#34;:-23.750488281250,&#34;m12&#34;:31.681152343750},&#34;opacity&#34;:1.0,&#34;blendMode&#34;:&#34;NORMAL&#34;,&#34;visible&#34;:true}" stroke="#9400CA" stroke-width="0.6"/>
<g clip-path="url(#paint2_diamond_92_6_clip_path)" data-figma-skip-parse="true"><g transform="matrix(-0.0063894 0.00378236 -0.00378236 -0.0063894 10.6454 23.1464)"><rect x="0" y="0" width="1080.81" height="1080.81" fill="url(#paint2_diamond_92_6)" opacity="1" shape-rendering="crispEdges"/><rect x="0" y="0" width="1080.81" height="1080.81" transform="scale(1 -1)" fill="url(#paint2_diamond_92_6)" opacity="1" shape-rendering="crispEdges"/><rect x="0" y="0" width="1080.81" height="1080.81" transform="scale(-1 1)" fill="url(#paint2_diamond_92_6)" opacity="1" shape-rendering="crispEdges"/><rect x="0" y="0" width="1080.81" height="1080.81" transform="scale(-1)" fill="url(#paint2_diamond_92_6)" opacity="1" shape-rendering="crispEdges"/></g></g><circle cx="10.6454" cy="23.1464" r="7.125" transform="rotate(59.3756 10.6454 23.1464)" data-figma-gradient-fill="{&#34;type&#34;:&#34;GRADIENT_DIAMOND&#34;,&#34;stops&#34;:[{&#34;color&#34;:{&#34;r&#34;:1.0,&#34;g&#34;:1.0,&#34;b&#34;:1.0,&#34;a&#34;:1.0},&#34;position&#34;:0.0},{&#34;color&#34;:{&#34;r&#34;:0.58039218187332153,&#34;g&#34;:0.0,&#34;b&#34;:0.79215687513351440,&#34;a&#34;:1.0},&#34;position&#34;:1.0}],&#34;stopsVar&#34;:[{&#34;color&#34;:{&#34;r&#34;:1.0,&#34;g&#34;:1.0,&#34;b&#34;:1.0,&#34;a&#34;:1.0},&#34;position&#34;:0.0},{&#34;color&#34;:{&#34;r&#34;:0.58039218187332153,&#34;g&#34;:0.0,&#34;b&#34;:0.79215687513351440,&#34;a&#34;:1.0},&#34;position&#34;:1.0}],&#34;transform&#34;:{&#34;m00&#34;:-12.778796195983887,&#34;m01&#34;:-7.5647110939025879,&#34;m02&#34;:20.817152023315430,&#34;m10&#34;:7.5647110939025879,&#34;m11&#34;:-12.778796195983887,&#34;m12&#34;:25.753404617309570},&#34;opacity&#34;:1.0,&#34;blendMode&#34;:&#34;NORMAL&#34;,&#34;visible&#34;:true}" stroke="white" stroke-width="0.6"/>
<defs>
<clipPath id="paint0_diamond_92_6_clip_path"><circle cx="35.764" cy="16.9926" r="7.125" transform="rotate(59.3756 35.764 16.9926)" stroke-width="0.6"/></clipPath><clipPath id="paint1_diamond_92_6_clip_path"><path d="M32.3439 38.4528C25.9279 42.2509 17.6478 40.1287 13.8498 33.7128C10.0517 27.2968 12.1739 19.0167 18.5898 15.2187C25.0058 11.4206 33.2859 13.5428 37.0839 19.9587C40.882 26.3747 38.7598 34.6548 32.3439 38.4528Z" stroke-width="0.6"/></clipPath><clipPath id="paint2_diamond_92_6_clip_path"><circle cx="10.6454" cy="23.1464" r="7.125" transform="rotate(59.3756 10.6454 23.1464)" stroke-width="0.6"/></clipPath><linearGradient id="paint0_diamond_92_6" x1="0" y1="0" x2="500" y2="500" gradientUnits="userSpaceOnUse">
<stop stop-color="white"/>
<stop offset="1" stop-color="#9400CA"/>
</linearGradient>
<linearGradient id="paint1_diamond_92_6" x1="0" y1="0" x2="500" y2="500" gradientUnits="userSpaceOnUse">
<stop stop-color="#9400CA"/>
<stop offset="1" stop-color="white"/>
</linearGradient>
<linearGradient id="paint2_diamond_92_6" x1="0" y1="0" x2="500" y2="500" gradientUnits="userSpaceOnUse">
<stop stop-color="white"/>
<stop offset="1" stop-color="#9400CA"/>
</linearGradient>
</defs>
</svg>
